PathFileType	4	(X/Y/Z)	OpenSim_Sub05_CSBaseline_Magnet.trc
DataRate	CameraRate	NumFrames	NumMarkers	Units	OrigDataRate	OrigDataStartFrame	OrigNumFrames
100	100	40	8	m	100	9238	10557
Frame#	Time	torso_imu_offset_imu	pelvis_imu_offset_imu	tibia_r_imu_offset_imu	femur_r_imu_offset_imu	tibia_l_imu_offset_imu	femur_l_imu_offset_imu	toes_r_imu_offset_imu	toes_l_imu_offset_imu
				X1	Y1	Z1	X2	Y2	Z2	X3	Y3	Z3	X4	Y4	Z4	X5	Y5	Z5	X6	Y6	Z6	X7	Y7	Z7	X8		Y8	Z8	

9238	92.37000000	-0.90258641	-0.16419186	0.16121918	-0.68173152	0.21352103	-0.61862807	-0.31513427	-0.72007805	-0.10828198	-0.87923963	-0.09750384	-0.05530487	-0.63212703	0.42700790	0.29003723	-0.58091263	0.21750493	0.26523279	-0.75319859	-0.25976618	0.05493580	-0.66352773	-0.23334166	-0.38291348
9239	92.38000000	-0.89661846	-0.16394109	0.16339192	-0.68030538	0.21314749	-0.61771726	-0.34859943	-0.70541935	-0.11179870	-0.87922973	-0.09275515	-0.05038482	-0.62784794	0.43208147	0.28916801	-0.57587664	0.22438898	0.27466992	-0.76045217	-0.24441913	0.02651990	-0.67027747	-0.23503099	-0.37752909
9240	92.39000000	-0.90005408	-0.16947405	0.16274309	-0.67759573	0.21137381	-0.61578060	-0.37304193	-0.69163605	-0.11490581	-0.87836996	-0.09537304	-0.04179222	-0.62349269	0.43374557	0.29091890	-0.57773622	0.22718363	0.27317800	-0.76132098	-0.23760095	-0.00653927	-0.67171262	-0.23278449	-0.37569491
9241	92.40000000	-0.89961950	-0.16945057	0.16014539	-0.67757958	0.21587207	-0.61656921	-0.40419035	-0.67077941	-0.11691240	-0.87718128	-0.09250449	-0.04307125	-0.62421157	0.43804733	0.29146102	-0.57888006	0.22898836	0.26931811	-0.75939139	-0.23145056	-0.04114875	-0.66965989	-0.24110862	-0.38019770
9242	92.41000000	-0.89547069	-0.17177864	0.15946861	-0.67573169	0.21373231	-0.61965080	-0.43630896	-0.65014588	-0.11764905	-0.87574376	-0.09437393	-0.03779627	-0.61791575	0.44420357	0.29117031	-0.57642246	0.23770218	0.27428269	-0.75952769	-0.21963569	-0.07550572	-0.67197301	-0.24443787	-0.37948456
9243	92.42000000	-0.89535895	-0.17328007	0.16174875	-0.67494624	0.21227555	-0.61935082	-0.46526986	-0.63269861	-0.11044071	-0.87916218	-0.10021600	-0.03821059	-0.60893792	0.44460672	0.29039261	-0.56872184	0.24131668	0.27282816	-0.75644019	-0.20722642	-0.11341659	-0.67190012	-0.24644281	-0.37887810
9244	92.43000000	-0.89474340	-0.17431856	0.16078139	-0.67484326	0.21093601	-0.62371579	-0.49681373	-0.60737662	-0.10448682	-0.88097504	-0.10368367	-0.03170165	-0.61019646	0.44770242	0.29391773	-0.57156807	0.24693812	0.27580838	-0.75622743	-0.19408443	-0.14671859	-0.67451881	-0.24090897	-0.37553385
9245	92.44000000	-0.89867489	-0.17797827	0.15851734	-0.67597471	0.20985928	-0.62145072	-0.51936196	-0.58250057	-0.10786290	-0.87659644	-0.10968078	-0.02795030	-0.60649146	0.45210493	0.29555557	-0.56816668	0.24864465	0.27670409	-0.75053974	-0.18577909	-0.17734336	-0.67225637	-0.24454773	-0.37313830
9246	92.45000000	-0.89675250	-0.18300944	0.15634155	-0.66937454	0.21166976	-0.62024747	-0.54966446	-0.56107337	-0.11372539	-0.87700781	-0.11557657	-0.01585999	-0.61211263	0.45840055	0.29295201	-0.56442675	0.25102941	0.28048961	-0.74251383	-0.17003792	-0.21047694	-0.67720920	-0.24364993	-0.36675780
9247	92.46000000	-0.89295053	-0.18189849	0.15539004	-0.67509643	0.21322483	-0.62958584	-0.57301205	-0.53100491	-0.11660061	-0.87671839	-0.12458234	-0.01266711	-0.60507525	0.46220915	0.29336046	-0.56080306	0.25777861	0.27965471	-0.74239051	-0.15290347	-0.24268772	-0.67835479	-0.24238630	-0.36651273
9248	92.47000000	-0.89476490	-0.18306541	0.15748318	-0.67421473	0.20760659	-0.63034171	-0.59545792	-0.50561775	-0.11316004	-0.87205401	-0.13770006	-0.00180101	-0.60284375	0.46234802	0.29689500	-0.56008125	0.26242442	0.28175659	-0.73732839	-0.14348113	-0.27374824	-0.67405602	-0.24937928	-0.36731688
9249	92.48000000	-0.89327404	-0.18281224	0.15702882	-0.67402598	0.20610906	-0.62716282	-0.61525818	-0.48152665	-0.11485773	-0.86911763	-0.15501761	0.00332885	-0.60342224	0.46350537	0.29255276	-0.55644455	0.26955658	0.28552306	-0.72498264	-0.13345606	-0.30622842	-0.67881135	-0.25048269	-0.36958966
9250	92.49000000	-0.89433904	-0.19012122	0.15222299	-0.67323172	0.20303475	-0.62589869	-0.63231589	-0.45911232	-0.11462722	-0.86476112	-0.16388409	0.00572310	-0.59884876	0.46884025	0.29753371	-0.55782724	0.27979403	0.28525158	-0.71552546	-0.11325514	-0.32983039	-0.68301740	-0.25441150	-0.36680614
9251	92.50000000	-0.89319304	-0.19070174	0.15428967	-0.67328076	0.20195947	-0.63019923	-0.64830660	-0.43875603	-0.11544670	-0.86382811	-0.17062907	0.01186542	-0.59505441	0.47728835	0.30316464	-0.55518379	0.27977891	0.28878841	-0.69969946	-0.10246003	-0.35282968	-0.68292220	-0.25182600	-0.36358643
9252	92.51000000	-0.89370650	-0.19256188	0.14737623	-0.66708588	0.19990986	-0.62852766	-0.66295760	-0.41737806	-0.10992328	-0.86107391	-0.18097477	0.02540516	-0.58860863	0.48537191	0.29700833	-0.55277733	0.28228130	0.29053107	-0.69084886	-0.09646825	-0.37924981	-0.68461841	-0.25344883	-0.36033710
9253	92.52000000	-0.89671166	-0.19496227	0.14783473	-0.67067900	0.20204549	-0.62341741	-0.66932089	-0.39928707	-0.11283491	-0.85430101	-0.19028953	0.03150887	-0.58530224	0.48647001	0.29473316	-0.54625164	0.28475082	0.28844910	-0.68208785	-0.08249116	-0.39723038	-0.68577121	-0.25766078	-0.35393544
9254	92.53000000	-0.89495666	-0.19222310	0.15017246	-0.67123427	0.19589574	-0.63128313	-0.67822912	-0.38554970	-0.10995976	-0.85189399	-0.19412263	0.03365074	-0.58180378	0.49026310	0.29516248	-0.54880470	0.29221074	0.28653579	-0.67599992	-0.07215525	-0.40756325	-0.68405540	-0.25578836	-0.34775558
9255	92.54000000	-0.89761739	-0.19504504	0.14855124	-0.67112068	0.19416890	-0.63061039	-0.68795339	-0.37640547	-0.10669967	-0.85479829	-0.19369969	0.04635764	-0.57743404	0.50128112	0.29441381	-0.54546036	0.29495336	0.28152720	-0.67278238	-0.06516293	-0.42030615	-0.69283983	-0.25675490	-0.34888821
9256	92.55000000	-0.89939901	-0.19660866	0.14352997	-0.67538555	0.19753208	-0.62781953	-0.68515020	-0.36869049	-0.11194782	-0.85059324	-0.18727249	0.05195678	-0.57383235	0.50759555	0.29379019	-0.54253897	0.29596669	0.28426221	-0.66719162	-0.06412108	-0.41565368	-0.68827872	-0.25801053	-0.34846841
9257	92.56000000	-0.89747693	-0.19614228	0.14659152	-0.67919587	0.19590762	-0.63096231	-0.68743112	-0.36929653	-0.10947284	-0.84748139	-0.18765904	0.05365311	-0.56575323	0.51227130	0.29446413	-0.54629494	0.29682674	0.28389134	-0.67147608	-0.06021384	-0.41584809	-0.69736248	-0.25588179	-0.34308434
9258	92.57000000	-0.89496221	-0.19655621	0.14418131	-0.67366838	0.19701284	-0.62732923	-0.68589208	-0.36888393	-0.10825939	-0.85362100	-0.18558245	0.05553418	-0.55983946	0.52459569	0.28762237	-0.55084044	0.29721320	0.28392066	-0.67370748	-0.05368216	-0.41822828	-0.69725896	-0.25703842	-0.33356649
9259	92.58000000	-0.89465422	-0.19461331	0.14501430	-0.67519571	0.19721532	-0.62925628	-0.68279075	-0.37861715	-0.10485741	-0.85381447	-0.18247166	0.05997887	-0.55697620	0.53345380	0.28877862	-0.54218529	0.30565425	0.27735861	-0.67518019	-0.05836304	-0.41747011	-0.69225609	-0.25824040	-0.33044596
9260	92.59000000	-0.89453026	-0.19494496	0.14130570	-0.67688465	0.18912648	-0.63153687	-0.67802468	-0.38566897	-0.10143213	-0.85332798	-0.17917803	0.06080778	-0.54697267	0.53910127	0.28945655	-0.53968473	0.30646139	0.28157295	-0.67465461	-0.05827791	-0.41824126	-0.70155156	-0.25681265	-0.32176619
9261	92.60000000	-0.89567436	-0.20017476	0.14656211	-0.67674733	0.18649128	-0.62793032	-0.68008614	-0.39061431	-0.09809987	-0.85136614	-0.17463960	0.06343455	-0.53998664	0.54975438	0.28204013	-0.54524812	0.30618531	0.27648760	-0.68288774	-0.06250635	-0.41298392	-0.69949898	-0.26364204	-0.31265864
9262	92.61000000	-0.90000906	-0.19605595	0.14123123	-0.67446271	0.18654122	-0.63425002	-0.66908324	-0.39878059	-0.09001440	-0.85466522	-0.17199118	0.06962121	-0.52778988	0.55711534	0.27934205	-0.54468390	0.31217091	0.26333669	-0.68818271	-0.07542720	-0.39653623	-0.70242150	-0.25816358	-0.30778074
9263	92.62000000	-0.90167034	-0.19508923	0.14022781	-0.67728890	0.17889945	-0.62883818	-0.65972307	-0.41805214	-0.07973217	-0.85263240	-0.17142628	0.07956101	-0.52103543	0.56726318	0.27941697	-0.54303032	0.31855444	0.26801584	-0.69829215	-0.08239988	-0.37671850	-0.71015864	-0.25751478	-0.29228053
9264	92.63000000	-0.89917537	-0.19810695	0.13724314	-0.67751181	0.17365515	-0.62380552	-0.65922589	-0.43158571	-0.07251550	-0.85063103	-0.17289599	0.09341831	-0.51440143	0.57454065	0.27743915	-0.53790864	0.32560368	0.26351887	-0.70717858	-0.08556232	-0.36201363	-0.71671656	-0.25352166	-0.27662506
9265	92.64000000	-0.90050290	-0.19869737	0.14209679	-0.68474327	0.16682492	-0.63139246	-0.65834759	-0.43246480	-0.06446208	-0.84072959	-0.17740257	0.10550129	-0.50547118	0.58627503	0.27296664	-0.54423588	0.32855479	0.25686103	-0.70975578	-0.10496619	-0.35374179	-0.72404090	-0.25277916	-0.26467324
9266	92.65000000	-0.89934394	-0.19720666	0.13730043	-0.68349946	0.15891712	-0.62672753	-0.65091867	-0.44679661	-0.06648535	-0.84180146	-0.18771117	0.11904626	-0.49583724	0.59582653	0.26729699	-0.54577849	0.33293139	0.25214390	-0.70808199	-0.11010095	-0.35127476	-0.72808718	-0.25365037	-0.24434794
9267	92.66000000	-0.90051075	-0.19418896	0.13330144	-0.68291236	0.15745097	-0.62809188	-0.64361557	-0.45294519	-0.06346920	-0.83641002	-0.19262406	0.13171664	-0.48112542	0.61000302	0.26517579	-0.54536696	0.33204905	0.25106814	-0.70831545	-0.11448398	-0.34585406	-0.73890184	-0.24547964	-0.22195089
9268	92.67000000	-0.90000137	-0.19766884	0.13623733	-0.68557304	0.15774038	-0.62827639	-0.63710154	-0.46014034	-0.05409734	-0.83681325	-0.19100473	0.14036453	-0.46905895	0.61927062	0.26485778	-0.55166859	0.33333052	0.23638478	-0.71217457	-0.11291556	-0.34134125	-0.74284881	-0.24234315	-0.19499756
9269	92.68000000	-0.89687575	-0.19581589	0.13681229	-0.68851521	0.15787752	-0.62702659	-0.63203113	-0.47093948	-0.04439381	-0.83738379	-0.18859304	0.14233232	-0.45669417	0.62836644	0.26409111	-0.55617613	0.32927058	0.22602467	-0.70612732	-0.11478568	-0.33537393	-0.75213990	-0.23531011	-0.16322101
9270	92.69000000	-0.89833139	-0.19213538	0.13505996	-0.68501033	0.15703953	-0.62686520	-0.62619700	-0.48244766	-0.03924121	-0.83639547	-0.17686266	0.15108728	-0.44365615	0.64008089	0.26358483	-0.56263056	0.32339996	0.21763808	-0.71155215	-0.11440239	-0.34381741	-0.75893236	-0.23134050	-0.13552113
9271	92.70000000	-0.89876517	-0.19348137	0.13326744	-0.68668341	0.16167780	-0.62953223	-0.61921576	-0.48449326	-0.04041530	-0.83745476	-0.17413630	0.15969388	-0.42762327	0.64917764	0.26207452	-0.56441123	0.32024148	0.21407027	-0.71144912	-0.11704898	-0.34222373	-0.76491918	-0.22800969	-0.10534506
9272	92.71000000	-0.90152806	-0.19602892	0.13985270	-0.69136031	0.15572695	-0.62599775	-0.61576658	-0.49061065	-0.03107614	-0.83213126	-0.18052314	0.16776731	-0.40862252	0.65845939	0.26818880	-0.56452271	0.31242955	0.19413973	-0.70788646	-0.11603945	-0.33949846	-0.76872053	-0.22554295	-0.07558846
9273	92.72000000	-0.90555078	-0.19527521	0.13632603	-0.69624441	0.15405749	-0.62527927	-0.61362328	-0.50657696	-0.02638586	-0.82863758	-0.18499319	0.17806964	-0.39832367	0.66352500	0.27501799	-0.57197829	0.31613041	0.18958680	-0.70562229	-0.11996208	-0.33759399	-0.77216216	-0.21930461	-0.04348130
9274	92.73000000	-0.90172248	-0.19145859	0.13494574	-0.69562472	0.15664680	-0.61920826	-0.61030593	-0.51039678	-0.02878685	-0.82538120	-0.19107913	0.18374995	-0.38484356	0.67115421	0.27335862	-0.58095082	0.30400782	0.18595746	-0.70701398	-0.11170445	-0.33164366	-0.77797967	-0.20807869	-0.00876549
9275	92.74000000	-0.90461054	-0.18579567	0.13874025	-0.69464723	0.14860548	-0.62213371	-0.60359725	-0.51145984	-0.01860797	-0.81923238	-0.20610412	0.19075485	-0.36962422	0.67837104	0.28315291	-0.58809898	0.29364795	0.17404333	-0.70676615	-0.11690724	-0.33607618	-0.77764525	-0.20109641	0.01994705
9276	92.75000000	-0.90327947	-0.17991187	0.14580406	-0.69308840	0.14909225	-0.62640205	-0.60158809	-0.52207927	-0.01770014	-0.81137977	-0.21889554	0.19523221	-0.34901919	0.68671028	0.28041320	-0.59193652	0.28324731	0.16424467	-0.71220787	-0.11765395	-0.33578597	-0.77673988	-0.19133743	0.04522605
9277	92.76000000	-0.90051213	-0.18143338	0.14355970	-0.69186891	0.14277351	-0.63014043	-0.60083275	-0.52438127	-0.02382861	-0.81186964	-0.22712117	0.19660766	-0.33015981	0.69277381	0.28950141	-0.59968537	0.27052149	0.15827202	-0.71129118	-0.11694365	-0.32981311	-0.77931452	-0.18272471	0.06591997
